<mxfile host="app.diagrams.net" modified="2023-03-25T19:01:01.804Z" agent="5.0 (X11; Ubuntu)" etag="hsfke-jewOqOY15PydWq" version="21.0.10" type="github">
  <diagram name="Page-1" id="J81h2vpOOWW3btrM4r2T">
    <mxGraphModel dx="2064" dy="470" grid="1" gridSize="10" guides="1" tooltips="1" connect="1" arrows="1" fold="1" page="1" pageScale="1" pageWidth="1654" pageHeight="2336" background="none" math="0" shadow="0">
      <root>
        <mxCell id="0" />
        <mxCell id="1" parent="0" />
        <mxCell id="rMOd0mq3vKUzxtM7h03M-17" value="" style="rounded=1;whiteSpace=wrap;html=1;" vertex="1" parent="1">
          <mxGeometry x="110" y="1310" width="181" height="90" as="geometry" />
        </mxCell>
        <mxCell id="Fp9Q9py_b1QLP6QahJXk-39" value="" style="shape=flexArrow;endArrow=classic;html=1;rounded=0;exitX=0.714;exitY=0.7;exitDx=0;exitDy=0;exitPerimeter=0;" parent="1" source="Fp9Q9py_b1QLP6QahJXk-143" edge="1">
          <mxGeometry width="50" height="50" relative="1" as="geometry">
            <mxPoint x="1040" y="250" as="sourcePoint" />
            <mxPoint x="462" y="360" as="targetPoint" />
            <Array as="points">
              <mxPoint x="1080" y="250" />
              <mxPoint x="1080" y="360" />
            </Array>
          </mxGeometry>
        </mxCell>
        <mxCell id="Fp9Q9py_b1QLP6QahJXk-143" value="&lt;font style=&quot;font-size: 20px;&quot; face=&quot;Arial&quot;&gt;Dron&lt;/font&gt;" style="shape=cube;whiteSpace=wrap;html=1;boundedLbl=1;backgroundOutline=1;darkOpacity=0.05;darkOpacity2=0.1;size=50;" parent="1" vertex="1">
          <mxGeometry x="890" y="190.5" width="140" height="85" as="geometry" />
        </mxCell>
        <mxCell id="Fp9Q9py_b1QLP6QahJXk-139" value="" style="endArrow=classic;html=1;rounded=0;" parent="1" edge="1">
          <mxGeometry width="50" height="50" relative="1" as="geometry">
            <mxPoint x="845" y="223" as="sourcePoint" />
            <mxPoint x="900" y="223" as="targetPoint" />
          </mxGeometry>
        </mxCell>
        <mxCell id="Fp9Q9py_b1QLP6QahJXk-140" value="" style="endArrow=classic;html=1;rounded=0;" parent="1" edge="1">
          <mxGeometry width="50" height="50" relative="1" as="geometry">
            <mxPoint x="851" y="233" as="sourcePoint" />
            <mxPoint x="910" y="233" as="targetPoint" />
          </mxGeometry>
        </mxCell>
        <mxCell id="Fp9Q9py_b1QLP6QahJXk-141" value="" style="endArrow=classic;html=1;rounded=0;" parent="1" edge="1">
          <mxGeometry width="50" height="50" relative="1" as="geometry">
            <mxPoint x="863" y="243" as="sourcePoint" />
            <mxPoint x="920" y="243" as="targetPoint" />
          </mxGeometry>
        </mxCell>
        <mxCell id="Fp9Q9py_b1QLP6QahJXk-142" value="" style="endArrow=classic;html=1;rounded=0;" parent="1" edge="1">
          <mxGeometry width="50" height="50" relative="1" as="geometry">
            <mxPoint x="865" y="254" as="sourcePoint" />
            <mxPoint x="930" y="253" as="targetPoint" />
          </mxGeometry>
        </mxCell>
        <mxCell id="Fp9Q9py_b1QLP6QahJXk-104" value="&lt;font style=&quot;font-size: 20px;&quot; face=&quot;Arial&quot;&gt;ESC&lt;/font&gt;" style="shape=cube;whiteSpace=wrap;html=1;boundedLbl=1;backgroundOutline=1;darkOpacity=0.05;darkOpacity2=0.1;size=50;" parent="1" vertex="1">
          <mxGeometry x="730" y="190.5" width="140" height="85" as="geometry" />
        </mxCell>
        <mxCell id="Fp9Q9py_b1QLP6QahJXk-134" value="" style="endArrow=classic;html=1;rounded=0;exitX=1;exitY=0.5;exitDx=0;exitDy=0;" parent="1" edge="1">
          <mxGeometry width="50" height="50" relative="1" as="geometry">
            <mxPoint x="703" y="223" as="sourcePoint" />
            <mxPoint x="743" y="223" as="targetPoint" />
          </mxGeometry>
        </mxCell>
        <mxCell id="Fp9Q9py_b1QLP6QahJXk-135" value="" style="endArrow=classic;html=1;rounded=0;exitX=1;exitY=0.5;exitDx=0;exitDy=0;" parent="1" edge="1">
          <mxGeometry width="50" height="50" relative="1" as="geometry">
            <mxPoint x="713" y="233" as="sourcePoint" />
            <mxPoint x="753" y="233" as="targetPoint" />
          </mxGeometry>
        </mxCell>
        <mxCell id="Fp9Q9py_b1QLP6QahJXk-136" value="" style="endArrow=classic;html=1;rounded=0;" parent="1" edge="1">
          <mxGeometry width="50" height="50" relative="1" as="geometry">
            <mxPoint x="706" y="243" as="sourcePoint" />
            <mxPoint x="763" y="243" as="targetPoint" />
          </mxGeometry>
        </mxCell>
        <mxCell id="Fp9Q9py_b1QLP6QahJXk-137" value="" style="endArrow=classic;html=1;rounded=0;" parent="1" edge="1">
          <mxGeometry width="50" height="50" relative="1" as="geometry">
            <mxPoint x="708" y="254" as="sourcePoint" />
            <mxPoint x="773" y="253" as="targetPoint" />
          </mxGeometry>
        </mxCell>
        <mxCell id="Fp9Q9py_b1QLP6QahJXk-43" value="" style="shape=cube;whiteSpace=wrap;html=1;boundedLbl=1;backgroundOutline=1;darkOpacity=0.05;darkOpacity2=0.1;size=30;" parent="1" vertex="1">
          <mxGeometry x="430" y="310" width="40" height="100" as="geometry" />
        </mxCell>
        <mxCell id="Fp9Q9py_b1QLP6QahJXk-20" value="&lt;font style=&quot;font-size: 20px;&quot; face=&quot;Arial&quot;&gt;Mikser silnikÃ³w&lt;/font&gt;" style="shape=cube;whiteSpace=wrap;html=1;boundedLbl=1;backgroundOutline=1;darkOpacity=0.05;darkOpacity2=0.1;size=30;" parent="1" vertex="1">
          <mxGeometry x="573" y="190.5" width="140" height="85" as="geometry" />
        </mxCell>
        <mxCell id="Fp9Q9py_b1QLP6QahJXk-91" style="edgeStyle=orthogonalEdgeStyle;rounded=0;orthogonalLoop=1;jettySize=auto;html=1;exitX=1;exitY=0.5;exitDx=0;exitDy=0;entryX=0;entryY=0.5;entryDx=0;entryDy=0;" parent="1" source="Fp9Q9py_b1QLP6QahJXk-92" target="Fp9Q9py_b1QLP6QahJXk-95" edge="1">
          <mxGeometry relative="1" as="geometry" />
        </mxCell>
        <mxCell id="Fp9Q9py_b1QLP6QahJXk-92" value="&lt;div&gt;Regulator typu PID&lt;/div&gt;" style="rounded=1;whiteSpace=wrap;html=1;fontFamily=Arial;" parent="1" vertex="1">
          <mxGeometry x="180" y="180" width="120" height="80" as="geometry" />
        </mxCell>
        <mxCell id="Fp9Q9py_b1QLP6QahJXk-93" value="&lt;div&gt;Regulator typu PID&lt;/div&gt;" style="rounded=1;whiteSpace=wrap;html=1;fontFamily=Arial;" parent="1" vertex="1">
          <mxGeometry x="420" y="180" width="120" height="80" as="geometry" />
        </mxCell>
        <mxCell id="Fp9Q9py_b1QLP6QahJXk-94" style="edgeStyle=orthogonalEdgeStyle;rounded=0;orthogonalLoop=1;jettySize=auto;html=1;exitX=1;exitY=0.5;exitDx=0;exitDy=0;entryX=0;entryY=0.5;entryDx=0;entryDy=0;" parent="1" source="Fp9Q9py_b1QLP6QahJXk-95" target="Fp9Q9py_b1QLP6QahJXk-93" edge="1">
          <mxGeometry relative="1" as="geometry" />
        </mxCell>
        <mxCell id="Fp9Q9py_b1QLP6QahJXk-95" value="" style="ellipse;whiteSpace=wrap;html=1;aspect=fixed;" parent="1" vertex="1">
          <mxGeometry x="340" y="200" width="40" height="40" as="geometry" />
        </mxCell>
        <mxCell id="Fp9Q9py_b1QLP6QahJXk-96" value="" style="endArrow=classic;html=1;rounded=0;exitX=1;exitY=0.5;exitDx=0;exitDy=0;" parent="1" source="Fp9Q9py_b1QLP6QahJXk-93" edge="1">
          <mxGeometry width="50" height="50" relative="1" as="geometry">
            <mxPoint x="600" y="240" as="sourcePoint" />
            <mxPoint x="580" y="220" as="targetPoint" />
          </mxGeometry>
        </mxCell>
        <mxCell id="Fp9Q9py_b1QLP6QahJXk-97" value="" style="endArrow=classic;html=1;rounded=0;entryX=0.5;entryY=1;entryDx=0;entryDy=0;" parent="1" target="Fp9Q9py_b1QLP6QahJXk-95" edge="1">
          <mxGeometry width="50" height="50" relative="1" as="geometry">
            <mxPoint x="435" y="330" as="sourcePoint" />
            <mxPoint x="320" y="280" as="targetPoint" />
            <Array as="points">
              <mxPoint x="360" y="330" />
            </Array>
          </mxGeometry>
        </mxCell>
        <mxCell id="Fp9Q9py_b1QLP6QahJXk-98" value="&lt;font style=&quot;font-size: 34px;&quot; face=&quot;Arial&quot;&gt;-&lt;/font&gt;" style="text;html=1;strokeColor=none;fillColor=none;align=center;verticalAlign=middle;whiteSpace=wrap;rounded=0;" parent="1" vertex="1">
          <mxGeometry x="350" y="240" width="60" height="30" as="geometry" />
        </mxCell>
        <mxCell id="Fp9Q9py_b1QLP6QahJXk-99" value="" style="endArrow=classic;html=1;rounded=0;entryX=0.5;entryY=1;entryDx=0;entryDy=0;" parent="1" target="Fp9Q9py_b1QLP6QahJXk-101" edge="1">
          <mxGeometry width="50" height="50" relative="1" as="geometry">
            <mxPoint x="435" y="370" as="sourcePoint" />
            <mxPoint x="100" y="240" as="targetPoint" />
            <Array as="points">
              <mxPoint x="120" y="370" />
            </Array>
          </mxGeometry>
        </mxCell>
        <mxCell id="Fp9Q9py_b1QLP6QahJXk-100" value="" style="edgeStyle=orthogonalEdgeStyle;rounded=0;orthogonalLoop=1;jettySize=auto;html=1;" parent="1" target="Fp9Q9py_b1QLP6QahJXk-92" edge="1">
          <mxGeometry relative="1" as="geometry">
            <mxPoint x="140" y="220" as="sourcePoint" />
          </mxGeometry>
        </mxCell>
        <mxCell id="Fp9Q9py_b1QLP6QahJXk-101" value="" style="ellipse;whiteSpace=wrap;html=1;aspect=fixed;" parent="1" vertex="1">
          <mxGeometry x="100" y="200" width="40" height="40" as="geometry" />
        </mxCell>
        <mxCell id="Fp9Q9py_b1QLP6QahJXk-102" value="&lt;font style=&quot;font-size: 34px;&quot; face=&quot;Arial&quot;&gt;-&lt;/font&gt;" style="text;html=1;strokeColor=none;fillColor=none;align=center;verticalAlign=middle;whiteSpace=wrap;rounded=0;" parent="1" vertex="1">
          <mxGeometry x="120" y="240" width="60" height="30" as="geometry" />
        </mxCell>
        <mxCell id="Fp9Q9py_b1QLP6QahJXk-103" value="" style="endArrow=classic;html=1;rounded=0;" parent="1" edge="1">
          <mxGeometry width="50" height="50" relative="1" as="geometry">
            <mxPoint x="60" y="219" as="sourcePoint" />
            <mxPoint x="100" y="218.71000000000004" as="targetPoint" />
          </mxGeometry>
        </mxCell>
        <mxCell id="Fp9Q9py_b1QLP6QahJXk-78" style="edgeStyle=orthogonalEdgeStyle;rounded=0;orthogonalLoop=1;jettySize=auto;html=1;exitX=1;exitY=0.5;exitDx=0;exitDy=0;entryX=0;entryY=0.5;entryDx=0;entryDy=0;" parent="1" source="Fp9Q9py_b1QLP6QahJXk-79" target="Fp9Q9py_b1QLP6QahJXk-82" edge="1">
          <mxGeometry relative="1" as="geometry" />
        </mxCell>
        <mxCell id="Fp9Q9py_b1QLP6QahJXk-79" value="&lt;div&gt;Regulator typu PID&lt;/div&gt;" style="rounded=1;whiteSpace=wrap;html=1;fontFamily=Arial;" parent="1" vertex="1">
          <mxGeometry x="190" y="190" width="120" height="80" as="geometry" />
        </mxCell>
        <mxCell id="Fp9Q9py_b1QLP6QahJXk-80" value="&lt;div&gt;Regulator typu PID&lt;/div&gt;" style="rounded=1;whiteSpace=wrap;html=1;fontFamily=Arial;" parent="1" vertex="1">
          <mxGeometry x="430" y="190" width="120" height="80" as="geometry" />
        </mxCell>
        <mxCell id="Fp9Q9py_b1QLP6QahJXk-81" style="edgeStyle=orthogonalEdgeStyle;rounded=0;orthogonalLoop=1;jettySize=auto;html=1;exitX=1;exitY=0.5;exitDx=0;exitDy=0;entryX=0;entryY=0.5;entryDx=0;entryDy=0;" parent="1" source="Fp9Q9py_b1QLP6QahJXk-82" target="Fp9Q9py_b1QLP6QahJXk-80" edge="1">
          <mxGeometry relative="1" as="geometry" />
        </mxCell>
        <mxCell id="Fp9Q9py_b1QLP6QahJXk-82" value="" style="ellipse;whiteSpace=wrap;html=1;aspect=fixed;" parent="1" vertex="1">
          <mxGeometry x="350" y="210" width="40" height="40" as="geometry" />
        </mxCell>
        <mxCell id="Fp9Q9py_b1QLP6QahJXk-83" value="" style="endArrow=classic;html=1;rounded=0;exitX=1;exitY=0.5;exitDx=0;exitDy=0;" parent="1" source="Fp9Q9py_b1QLP6QahJXk-80" edge="1">
          <mxGeometry width="50" height="50" relative="1" as="geometry">
            <mxPoint x="610" y="250" as="sourcePoint" />
            <mxPoint x="590" y="230" as="targetPoint" />
          </mxGeometry>
        </mxCell>
        <mxCell id="Fp9Q9py_b1QLP6QahJXk-84" value="" style="endArrow=classic;html=1;rounded=0;entryX=0.5;entryY=1;entryDx=0;entryDy=0;" parent="1" target="Fp9Q9py_b1QLP6QahJXk-82" edge="1">
          <mxGeometry width="50" height="50" relative="1" as="geometry">
            <mxPoint x="445" y="340" as="sourcePoint" />
            <mxPoint x="330" y="290" as="targetPoint" />
            <Array as="points">
              <mxPoint x="370" y="340" />
            </Array>
          </mxGeometry>
        </mxCell>
        <mxCell id="Fp9Q9py_b1QLP6QahJXk-85" value="&lt;font style=&quot;font-size: 34px;&quot; face=&quot;Arial&quot;&gt;-&lt;/font&gt;" style="text;html=1;strokeColor=none;fillColor=none;align=center;verticalAlign=middle;whiteSpace=wrap;rounded=0;" parent="1" vertex="1">
          <mxGeometry x="360" y="250" width="60" height="30" as="geometry" />
        </mxCell>
        <mxCell id="Fp9Q9py_b1QLP6QahJXk-86" value="" style="endArrow=classic;html=1;rounded=0;entryX=0.5;entryY=1;entryDx=0;entryDy=0;" parent="1" target="Fp9Q9py_b1QLP6QahJXk-88" edge="1">
          <mxGeometry width="50" height="50" relative="1" as="geometry">
            <mxPoint x="445" y="380" as="sourcePoint" />
            <mxPoint x="110" y="250" as="targetPoint" />
            <Array as="points">
              <mxPoint x="130" y="380" />
            </Array>
          </mxGeometry>
        </mxCell>
        <mxCell id="Fp9Q9py_b1QLP6QahJXk-87" value="" style="edgeStyle=orthogonalEdgeStyle;rounded=0;orthogonalLoop=1;jettySize=auto;html=1;" parent="1" target="Fp9Q9py_b1QLP6QahJXk-79" edge="1">
          <mxGeometry relative="1" as="geometry">
            <mxPoint x="150" y="230" as="sourcePoint" />
          </mxGeometry>
        </mxCell>
        <mxCell id="Fp9Q9py_b1QLP6QahJXk-88" value="" style="ellipse;whiteSpace=wrap;html=1;aspect=fixed;" parent="1" vertex="1">
          <mxGeometry x="110" y="210" width="40" height="40" as="geometry" />
        </mxCell>
        <mxCell id="Fp9Q9py_b1QLP6QahJXk-89" value="&lt;font style=&quot;font-size: 34px;&quot; face=&quot;Arial&quot;&gt;-&lt;/font&gt;" style="text;html=1;strokeColor=none;fillColor=none;align=center;verticalAlign=middle;whiteSpace=wrap;rounded=0;" parent="1" vertex="1">
          <mxGeometry x="130" y="250" width="60" height="30" as="geometry" />
        </mxCell>
        <mxCell id="Fp9Q9py_b1QLP6QahJXk-90" value="" style="endArrow=classic;html=1;rounded=0;" parent="1" edge="1">
          <mxGeometry width="50" height="50" relative="1" as="geometry">
            <mxPoint x="70" y="230" as="sourcePoint" />
            <mxPoint x="110" y="229.71" as="targetPoint" />
          </mxGeometry>
        </mxCell>
        <mxCell id="Fp9Q9py_b1QLP6QahJXk-16" style="edgeStyle=orthogonalEdgeStyle;rounded=0;orthogonalLoop=1;jettySize=auto;html=1;exitX=1;exitY=0.5;exitDx=0;exitDy=0;entryX=0;entryY=0.5;entryDx=0;entryDy=0;" parent="1" source="Fp9Q9py_b1QLP6QahJXk-12" target="Fp9Q9py_b1QLP6QahJXk-15" edge="1">
          <mxGeometry relative="1" as="geometry" />
        </mxCell>
        <mxCell id="Fp9Q9py_b1QLP6QahJXk-12" value="&lt;div style=&quot;font-size: 20px;&quot;&gt;&lt;font style=&quot;font-size: 20px;&quot;&gt;Regulator typu PID&lt;/font&gt;&lt;/div&gt;" style="rounded=1;whiteSpace=wrap;html=1;fontFamily=Arial;" parent="1" vertex="1">
          <mxGeometry x="200" y="200" width="120" height="80" as="geometry" />
        </mxCell>
        <mxCell id="Fp9Q9py_b1QLP6QahJXk-13" value="&lt;div style=&quot;font-size: 20px;&quot;&gt;&lt;font style=&quot;font-size: 20px;&quot;&gt;Regulator typu PID&lt;/font&gt;&lt;/div&gt;" style="rounded=1;whiteSpace=wrap;html=1;fontFamily=Arial;" parent="1" vertex="1">
          <mxGeometry x="440" y="200" width="120" height="80" as="geometry" />
        </mxCell>
        <mxCell id="Fp9Q9py_b1QLP6QahJXk-17" style="edgeStyle=orthogonalEdgeStyle;rounded=0;orthogonalLoop=1;jettySize=auto;html=1;exitX=1;exitY=0.5;exitDx=0;exitDy=0;entryX=0;entryY=0.5;entryDx=0;entryDy=0;" parent="1" source="Fp9Q9py_b1QLP6QahJXk-15" target="Fp9Q9py_b1QLP6QahJXk-13" edge="1">
          <mxGeometry relative="1" as="geometry" />
        </mxCell>
        <mxCell id="Fp9Q9py_b1QLP6QahJXk-15" value="" style="ellipse;whiteSpace=wrap;html=1;aspect=fixed;" parent="1" vertex="1">
          <mxGeometry x="360" y="220" width="40" height="40" as="geometry" />
        </mxCell>
        <mxCell id="Fp9Q9py_b1QLP6QahJXk-18" value="" style="endArrow=classic;html=1;rounded=0;exitX=1;exitY=0.5;exitDx=0;exitDy=0;" parent="1" source="Fp9Q9py_b1QLP6QahJXk-13" edge="1">
          <mxGeometry width="50" height="50" relative="1" as="geometry">
            <mxPoint x="620" y="260" as="sourcePoint" />
            <mxPoint x="600" y="240" as="targetPoint" />
          </mxGeometry>
        </mxCell>
        <mxCell id="Fp9Q9py_b1QLP6QahJXk-44" value="" style="endArrow=classic;html=1;rounded=0;entryX=0.5;entryY=1;entryDx=0;entryDy=0;" parent="1" target="Fp9Q9py_b1QLP6QahJXk-15" edge="1">
          <mxGeometry width="50" height="50" relative="1" as="geometry">
            <mxPoint x="455" y="350" as="sourcePoint" />
            <mxPoint x="340" y="300" as="targetPoint" />
            <Array as="points">
              <mxPoint x="380" y="350" />
            </Array>
          </mxGeometry>
        </mxCell>
        <mxCell id="Fp9Q9py_b1QLP6QahJXk-45" value="&lt;font style=&quot;font-size: 34px;&quot; face=&quot;Arial&quot;&gt;-&lt;/font&gt;" style="text;html=1;strokeColor=none;fillColor=none;align=center;verticalAlign=middle;whiteSpace=wrap;rounded=0;" parent="1" vertex="1">
          <mxGeometry x="370" y="260" width="60" height="30" as="geometry" />
        </mxCell>
        <mxCell id="Fp9Q9py_b1QLP6QahJXk-46" value="" style="endArrow=classic;html=1;rounded=0;entryX=0.5;entryY=1;entryDx=0;entryDy=0;" parent="1" target="Fp9Q9py_b1QLP6QahJXk-47" edge="1">
          <mxGeometry width="50" height="50" relative="1" as="geometry">
            <mxPoint x="455" y="390" as="sourcePoint" />
            <mxPoint x="120" y="260" as="targetPoint" />
            <Array as="points">
              <mxPoint x="140" y="390" />
            </Array>
          </mxGeometry>
        </mxCell>
        <mxCell id="Fp9Q9py_b1QLP6QahJXk-52" value="" style="edgeStyle=orthogonalEdgeStyle;rounded=0;orthogonalLoop=1;jettySize=auto;html=1;" parent="1" target="Fp9Q9py_b1QLP6QahJXk-12" edge="1">
          <mxGeometry relative="1" as="geometry">
            <mxPoint x="160" y="240" as="sourcePoint" />
          </mxGeometry>
        </mxCell>
        <mxCell id="Fp9Q9py_b1QLP6QahJXk-47" value="" style="ellipse;whiteSpace=wrap;html=1;aspect=fixed;" parent="1" vertex="1">
          <mxGeometry x="120" y="220" width="40" height="40" as="geometry" />
        </mxCell>
        <mxCell id="Fp9Q9py_b1QLP6QahJXk-48" value="&lt;font style=&quot;font-size: 34px;&quot; face=&quot;Arial&quot;&gt;-&lt;/font&gt;" style="text;html=1;strokeColor=none;fillColor=none;align=center;verticalAlign=middle;whiteSpace=wrap;rounded=0;" parent="1" vertex="1">
          <mxGeometry x="140" y="260" width="60" height="30" as="geometry" />
        </mxCell>
        <mxCell id="Fp9Q9py_b1QLP6QahJXk-53" value="" style="endArrow=classic;html=1;rounded=0;" parent="1" edge="1">
          <mxGeometry width="50" height="50" relative="1" as="geometry">
            <mxPoint x="80" y="240" as="sourcePoint" />
            <mxPoint x="120" y="239.71" as="targetPoint" />
          </mxGeometry>
        </mxCell>
        <mxCell id="Fp9Q9py_b1QLP6QahJXk-106" value="&lt;font style=&quot;font-size: 16px;&quot; face=&quot;Arial&quot;&gt;Ï&lt;sub&gt;zad&lt;/sub&gt;&lt;/font&gt;" style="text;html=1;strokeColor=none;fillColor=none;align=center;verticalAlign=middle;whiteSpace=wrap;rounded=0;" parent="1" vertex="1">
          <mxGeometry x="10" y="202" width="50" height="30" as="geometry" />
        </mxCell>
        <mxCell id="Fp9Q9py_b1QLP6QahJXk-107" value="&lt;font size=&quot;1&quot;&gt;&lt;sub&gt;&lt;font style=&quot;white-space: pre-wrap; font-size: 18px;&quot; face=&quot;Arial&quot;&gt;Î¸zad&lt;/font&gt;&lt;/sub&gt;&lt;/font&gt;" style="text;html=1;strokeColor=none;fillColor=none;align=center;verticalAlign=middle;whiteSpace=wrap;rounded=0;" parent="1" vertex="1">
          <mxGeometry x="15" y="215" width="60" height="30" as="geometry" />
        </mxCell>
        <mxCell id="Fp9Q9py_b1QLP6QahJXk-108" value="&lt;font style=&quot;font-size: 24px; white-space: pre-wrap;&quot;&gt;Ï&lt;sub&gt;zad&lt;/sub&gt;&lt;/font&gt;" style="text;html=1;strokeColor=none;fillColor=none;align=center;verticalAlign=middle;whiteSpace=wrap;rounded=0;" parent="1" vertex="1">
          <mxGeometry x="29" y="230" width="53.33" height="24" as="geometry" />
        </mxCell>
        <mxCell id="Fp9Q9py_b1QLP6QahJXk-122" value="&lt;div style=&quot;font-size: 20px;&quot; align=&quot;justify&quot;&gt;&lt;font style=&quot;font-size: 20px;&quot;&gt;Ï&lt;sub&gt;z&lt;/sub&gt;&lt;/font&gt;&lt;/div&gt;" style="text;html=1;align=center;verticalAlign=middle;resizable=0;points=[];autosize=1;strokeColor=none;fillColor=none;" parent="1" vertex="1">
          <mxGeometry x="348" y="335" width="50" height="40" as="geometry" />
        </mxCell>
        <mxCell id="Fp9Q9py_b1QLP6QahJXk-123" value="&lt;div style=&quot;font-size: 16px;&quot;&gt;&lt;font style=&quot;font-size: 16px;&quot;&gt;Ï&lt;/font&gt;&lt;/div&gt;" style="text;html=1;align=center;verticalAlign=middle;resizable=0;points=[];autosize=1;strokeColor=none;fillColor=none;" parent="1" vertex="1">
          <mxGeometry x="95" y="353" width="30" height="30" as="geometry" />
        </mxCell>
        <mxCell id="Fp9Q9py_b1QLP6QahJXk-125" value="&lt;font style=&quot;font-size: 24px;&quot;&gt;Ï&lt;/font&gt;" style="text;html=1;strokeColor=none;fillColor=none;align=center;verticalAlign=middle;whiteSpace=wrap;rounded=0;" parent="1" vertex="1">
          <mxGeometry x="100" y="377" width="60" height="30" as="geometry" />
        </mxCell>
        <mxCell id="Fp9Q9py_b1QLP6QahJXk-126" value="&lt;div style=&quot;font-size: 18px;&quot;&gt;&lt;font style=&quot;font-size: 18px;&quot;&gt;Î¸&lt;/font&gt;&lt;/div&gt;" style="text;html=1;strokeColor=none;fillColor=none;align=center;verticalAlign=middle;whiteSpace=wrap;rounded=0;" parent="1" vertex="1">
          <mxGeometry x="89" y="368" width="60" height="30" as="geometry" />
        </mxCell>
        <mxCell id="Fp9Q9py_b1QLP6QahJXk-127" value="&lt;font style=&quot;font-size: 16px;&quot;&gt;&lt;font style=&quot;font-size: 16px;&quot; face=&quot;Arial&quot;&gt;Ï&lt;sub&gt;x&lt;/sub&gt;&lt;/font&gt;&lt;/font&gt;" style="text;html=1;strokeColor=none;fillColor=none;align=center;verticalAlign=middle;whiteSpace=wrap;rounded=0;" parent="1" vertex="1">
          <mxGeometry x="314" y="311" width="60" height="30" as="geometry" />
        </mxCell>
        <mxCell id="Fp9Q9py_b1QLP6QahJXk-128" value="&lt;font style=&quot;font-size: 18px;&quot;&gt;&lt;font style=&quot;font-size: 18px;&quot;&gt;Ï&lt;sub&gt;y&lt;/sub&gt;&lt;/font&gt; &lt;/font&gt;" style="text;whiteSpace=wrap;html=1;" parent="1" vertex="1">
          <mxGeometry x="344" y="322" width="30" height="30" as="geometry" />
        </mxCell>
        <mxCell id="Fp9Q9py_b1QLP6QahJXk-185" value="&lt;font style=&quot;font-size: 48px;&quot;&gt;SYSTEM STEROWANIA&lt;br&gt;&lt;/font&gt;" style="text;html=1;strokeColor=none;fillColor=none;align=center;verticalAlign=middle;whiteSpace=wrap;rounded=0;" parent="1" vertex="1">
          <mxGeometry y="13" width="665" height="157" as="geometry" />
        </mxCell>
        <mxCell id="Fp9Q9py_b1QLP6QahJXk-186" value="&lt;font style=&quot;font-size: 48px;&quot;&gt;Mikser ilustracja&lt;br&gt;&lt;/font&gt;" style="text;html=1;strokeColor=none;fillColor=none;align=center;verticalAlign=middle;whiteSpace=wrap;rounded=0;" parent="1" vertex="1">
          <mxGeometry x="-77" y="714" width="665" height="157" as="geometry" />
        </mxCell>
        <mxCell id="Fp9Q9py_b1QLP6QahJXk-187" value="" style="group" parent="1" vertex="1" connectable="0">
          <mxGeometry x="110" y="527" width="491.60919540229884" height="180" as="geometry" />
        </mxCell>
        <mxCell id="Fp9Q9py_b1QLP6QahJXk-184" value="" style="rounded=1;whiteSpace=wrap;html=1;" parent="Fp9Q9py_b1QLP6QahJXk-187" vertex="1">
          <mxGeometry x="159" width="260" height="180" as="geometry" />
        </mxCell>
        <mxCell id="Fp9Q9py_b1QLP6QahJXk-151" value="" style="ellipse;whiteSpace=wrap;html=1;" parent="Fp9Q9py_b1QLP6QahJXk-187" vertex="1">
          <mxGeometry x="50" y="70" width="40" height="40" as="geometry" />
        </mxCell>
        <mxCell id="Fp9Q9py_b1QLP6QahJXk-152" value="" style="endArrow=classic;html=1;rounded=0;" parent="Fp9Q9py_b1QLP6QahJXk-187" edge="1">
          <mxGeometry width="50" height="50" relative="1" as="geometry">
            <mxPoint x="10" y="90" as="sourcePoint" />
            <mxPoint x="50" y="90" as="targetPoint" />
          </mxGeometry>
        </mxCell>
        <mxCell id="Fp9Q9py_b1QLP6QahJXk-156" value="&lt;font size=&quot;1&quot;&gt;&lt;font style=&quot;font-size: 20px;&quot; face=&quot;Arial&quot;&gt;y&lt;/font&gt;&lt;/font&gt;&lt;font style=&quot;font-size: 12px;&quot;&gt;&lt;font style=&quot;white-space: pre-wrap; font-size: 12px;&quot; face=&quot;Arial&quot;&gt;&lt;span style=&quot;&quot;&gt;&lt;/span&gt;&lt;sub style=&quot;&quot;&gt;zad&lt;/sub&gt;&lt;/font&gt;&lt;font style=&quot;white-space: pre-wrap; font-size: 20px;&quot; face=&quot;Arial&quot;&gt;(t)&lt;/font&gt;&lt;/font&gt;" style="text;html=1;strokeColor=none;fillColor=none;align=center;verticalAlign=middle;whiteSpace=wrap;rounded=0;" parent="Fp9Q9py_b1QLP6QahJXk-187" vertex="1">
          <mxGeometry y="60" width="60" height="30" as="geometry" />
        </mxCell>
        <mxCell id="Fp9Q9py_b1QLP6QahJXk-158" value="&lt;font style=&quot;font-size: 20px;&quot; face=&quot;Arial&quot;&gt;y&lt;/font&gt;&lt;font style=&quot;white-space: pre-wrap; font-size: 20px;&quot; face=&quot;Arial&quot;&gt;(t)&lt;/font&gt;" style="text;html=1;strokeColor=none;fillColor=none;align=center;verticalAlign=middle;whiteSpace=wrap;rounded=0;" parent="Fp9Q9py_b1QLP6QahJXk-187" vertex="1">
          <mxGeometry x="57" y="115" width="60" height="30" as="geometry" />
        </mxCell>
        <mxCell id="Fp9Q9py_b1QLP6QahJXk-160" value="" style="endArrow=classic;html=1;rounded=0;" parent="Fp9Q9py_b1QLP6QahJXk-187" edge="1">
          <mxGeometry width="50" height="50" relative="1" as="geometry">
            <mxPoint x="70" y="150" as="sourcePoint" />
            <mxPoint x="70" y="110" as="targetPoint" />
          </mxGeometry>
        </mxCell>
        <mxCell id="Fp9Q9py_b1QLP6QahJXk-161" value="&lt;font style=&quot;font-size: 20px;&quot; face=&quot;Arial&quot;&gt;-&lt;/font&gt;" style="text;html=1;strokeColor=none;fillColor=none;align=center;verticalAlign=middle;whiteSpace=wrap;rounded=0;" parent="Fp9Q9py_b1QLP6QahJXk-187" vertex="1">
          <mxGeometry x="60" y="90" width="60" height="30" as="geometry" />
        </mxCell>
        <mxCell id="Fp9Q9py_b1QLP6QahJXk-162" value="" style="endArrow=oval;html=1;rounded=0;exitX=1;exitY=0.5;exitDx=0;exitDy=0;endFill=1;" parent="Fp9Q9py_b1QLP6QahJXk-187" source="Fp9Q9py_b1QLP6QahJXk-151" edge="1">
          <mxGeometry width="50" height="50" relative="1" as="geometry">
            <mxPoint x="100" y="80" as="sourcePoint" />
            <mxPoint x="170" y="90" as="targetPoint" />
          </mxGeometry>
        </mxCell>
        <mxCell id="Fp9Q9py_b1QLP6QahJXk-163" value="&lt;font style=&quot;font-size: 20px;&quot;&gt;e(t)&lt;/font&gt;" style="text;html=1;strokeColor=none;fillColor=none;align=center;verticalAlign=middle;whiteSpace=wrap;rounded=0;" parent="Fp9Q9py_b1QLP6QahJXk-187" vertex="1">
          <mxGeometry x="100" y="60" width="60" height="30" as="geometry" />
        </mxCell>
        <mxCell id="Fp9Q9py_b1QLP6QahJXk-164" value="" style="endArrow=classic;html=1;rounded=0;entryX=0;entryY=0.5;entryDx=0;entryDy=0;" parent="Fp9Q9py_b1QLP6QahJXk-187" target="Fp9Q9py_b1QLP6QahJXk-167" edge="1">
          <mxGeometry width="50" height="50" relative="1" as="geometry">
            <mxPoint x="170" y="90" as="sourcePoint" />
            <mxPoint x="220" y="30" as="targetPoint" />
            <Array as="points">
              <mxPoint x="170" y="30" />
            </Array>
          </mxGeometry>
        </mxCell>
        <mxCell id="Fp9Q9py_b1QLP6QahJXk-167" value="&lt;font style=&quot;font-size: 20px;&quot;&gt;K&lt;/font&gt;&lt;font size=&quot;1&quot;&gt;&lt;sub style=&quot;font-size: 12px;&quot;&gt;p&lt;/sub&gt;&lt;/font&gt;" style="whiteSpace=wrap;html=1;aspect=fixed;" parent="Fp9Q9py_b1QLP6QahJXk-187" vertex="1">
          <mxGeometry x="210" y="10" width="40" height="40" as="geometry" />
        </mxCell>
        <mxCell id="Fp9Q9py_b1QLP6QahJXk-168" value="&lt;font style=&quot;font-size: 20px;&quot;&gt;K&lt;font size=&quot;1&quot;&gt;&lt;sub style=&quot;font-size: 12px;&quot;&gt;i&lt;/sub&gt;&lt;/font&gt;&lt;/font&gt;" style="whiteSpace=wrap;html=1;aspect=fixed;" parent="Fp9Q9py_b1QLP6QahJXk-187" vertex="1">
          <mxGeometry x="210" y="70" width="40" height="40" as="geometry" />
        </mxCell>
        <mxCell id="Fp9Q9py_b1QLP6QahJXk-169" value="" style="endArrow=classic;html=1;rounded=0;entryX=0;entryY=0.5;entryDx=0;entryDy=0;" parent="Fp9Q9py_b1QLP6QahJXk-187" target="Fp9Q9py_b1QLP6QahJXk-168" edge="1">
          <mxGeometry width="50" height="50" relative="1" as="geometry">
            <mxPoint x="170" y="90" as="sourcePoint" />
            <mxPoint x="260" y="30" as="targetPoint" />
          </mxGeometry>
        </mxCell>
        <mxCell id="Fp9Q9py_b1QLP6QahJXk-170" value="" style="endArrow=classic;html=1;rounded=0;" parent="Fp9Q9py_b1QLP6QahJXk-187" edge="1">
          <mxGeometry width="50" height="50" relative="1" as="geometry">
            <mxPoint x="170" y="90" as="sourcePoint" />
            <mxPoint x="250" y="150" as="targetPoint" />
            <Array as="points">
              <mxPoint x="170" y="150" />
            </Array>
          </mxGeometry>
        </mxCell>
        <mxCell id="Fp9Q9py_b1QLP6QahJXk-171" value="&lt;font style=&quot;font-size: 20px;&quot;&gt;K&lt;/font&gt;d" style="whiteSpace=wrap;html=1;aspect=fixed;" parent="Fp9Q9py_b1QLP6QahJXk-187" vertex="1">
          <mxGeometry x="210" y="130" width="40" height="40" as="geometry" />
        </mxCell>
        <mxCell id="Fp9Q9py_b1QLP6QahJXk-172" value="&lt;font size=&quot;1&quot;&gt;&lt;em style=&quot;font-size: 20px;&quot;&gt; â«&lt;/em&gt;&lt;/font&gt;" style="whiteSpace=wrap;html=1;aspect=fixed;" parent="Fp9Q9py_b1QLP6QahJXk-187" vertex="1">
          <mxGeometry x="290" y="70" width="40" height="40" as="geometry" />
        </mxCell>
        <mxCell id="Fp9Q9py_b1QLP6QahJXk-174" style="edgeStyle=orthogonalEdgeStyle;rounded=0;orthogonalLoop=1;jettySize=auto;html=1;exitX=1;exitY=0.5;exitDx=0;exitDy=0;entryX=0;entryY=0.5;entryDx=0;entryDy=0;" parent="Fp9Q9py_b1QLP6QahJXk-187" source="Fp9Q9py_b1QLP6QahJXk-168" target="Fp9Q9py_b1QLP6QahJXk-172" edge="1">
          <mxGeometry relative="1" as="geometry" />
        </mxCell>
        <mxCell id="Fp9Q9py_b1QLP6QahJXk-173" value="&lt;div style=&quot;font-size: 20px;&quot;&gt;&lt;font size=&quot;1&quot;&gt;&lt;em style=&quot;font-size: 20px;&quot;&gt;d/dt&lt;/em&gt;&lt;/font&gt;&lt;/div&gt;" style="whiteSpace=wrap;html=1;aspect=fixed;" parent="Fp9Q9py_b1QLP6QahJXk-187" vertex="1">
          <mxGeometry x="290" y="130" width="40" height="40" as="geometry" />
        </mxCell>
        <mxCell id="Fp9Q9py_b1QLP6QahJXk-175" style="edgeStyle=orthogonalEdgeStyle;rounded=0;orthogonalLoop=1;jettySize=auto;html=1;exitX=1;exitY=0.5;exitDx=0;exitDy=0;entryX=0;entryY=0.5;entryDx=0;entryDy=0;" parent="Fp9Q9py_b1QLP6QahJXk-187" source="Fp9Q9py_b1QLP6QahJXk-171" target="Fp9Q9py_b1QLP6QahJXk-173" edge="1">
          <mxGeometry relative="1" as="geometry" />
        </mxCell>
        <mxCell id="Fp9Q9py_b1QLP6QahJXk-176" value="" style="ellipse;whiteSpace=wrap;html=1;" parent="Fp9Q9py_b1QLP6QahJXk-187" vertex="1">
          <mxGeometry x="370" y="70" width="40" height="40" as="geometry" />
        </mxCell>
        <mxCell id="Fp9Q9py_b1QLP6QahJXk-180" style="edgeStyle=orthogonalEdgeStyle;rounded=0;orthogonalLoop=1;jettySize=auto;html=1;exitX=1;exitY=0.5;exitDx=0;exitDy=0;entryX=0.5;entryY=0;entryDx=0;entryDy=0;" parent="Fp9Q9py_b1QLP6QahJXk-187" source="Fp9Q9py_b1QLP6QahJXk-167" target="Fp9Q9py_b1QLP6QahJXk-176" edge="1">
          <mxGeometry relative="1" as="geometry">
            <mxPoint x="410" y="30" as="targetPoint" />
          </mxGeometry>
        </mxCell>
        <mxCell id="Fp9Q9py_b1QLP6QahJXk-178" style="edgeStyle=orthogonalEdgeStyle;rounded=0;orthogonalLoop=1;jettySize=auto;html=1;exitX=1;exitY=0.5;exitDx=0;exitDy=0;entryX=0;entryY=0.5;entryDx=0;entryDy=0;" parent="Fp9Q9py_b1QLP6QahJXk-187" source="Fp9Q9py_b1QLP6QahJXk-172" target="Fp9Q9py_b1QLP6QahJXk-176" edge="1">
          <mxGeometry relative="1" as="geometry" />
        </mxCell>
        <mxCell id="Fp9Q9py_b1QLP6QahJXk-181" style="edgeStyle=orthogonalEdgeStyle;rounded=0;orthogonalLoop=1;jettySize=auto;html=1;exitX=1;exitY=0.5;exitDx=0;exitDy=0;entryX=0.5;entryY=1;entryDx=0;entryDy=0;" parent="Fp9Q9py_b1QLP6QahJXk-187" source="Fp9Q9py_b1QLP6QahJXk-173" target="Fp9Q9py_b1QLP6QahJXk-176" edge="1">
          <mxGeometry relative="1" as="geometry" />
        </mxCell>
        <mxCell id="Fp9Q9py_b1QLP6QahJXk-182" value="" style="endArrow=classic;html=1;rounded=0;" parent="Fp9Q9py_b1QLP6QahJXk-187" edge="1">
          <mxGeometry width="50" height="50" relative="1" as="geometry">
            <mxPoint x="410" y="90" as="sourcePoint" />
            <mxPoint x="491.60919540229884" y="90" as="targetPoint" />
          </mxGeometry>
        </mxCell>
        <mxCell id="Fp9Q9py_b1QLP6QahJXk-183" value="&lt;font style=&quot;font-size: 20px;&quot;&gt;u(t)&lt;/font&gt;" style="text;html=1;strokeColor=none;fillColor=none;align=center;verticalAlign=middle;whiteSpace=wrap;rounded=0;" parent="Fp9Q9py_b1QLP6QahJXk-187" vertex="1">
          <mxGeometry x="419" y="60" width="60" height="30" as="geometry" />
        </mxCell>
        <mxCell id="Fp9Q9py_b1QLP6QahJXk-188" value="&lt;font style=&quot;font-size: 48px;&quot;&gt;REGULATOR PID&lt;/font&gt;" style="text;html=1;strokeColor=none;fillColor=none;align=center;verticalAlign=middle;whiteSpace=wrap;rounded=0;" parent="1" vertex="1">
          <mxGeometry x="21" y="455" width="496" height="30" as="geometry" />
        </mxCell>
        <mxCell id="Fp9Q9py_b1QLP6QahJXk-189" value="&lt;font style=&quot;font-size: 20px;&quot;&gt;u(t)&lt;/font&gt;" style="text;html=1;strokeColor=none;fillColor=none;align=center;verticalAlign=middle;whiteSpace=wrap;rounded=0;" parent="1" vertex="1">
          <mxGeometry x="514" y="569" width="60" height="30" as="geometry" />
        </mxCell>
        <mxCell id="Fp9Q9py_b1QLP6QahJXk-190" style="edgeStyle=orthogonalEdgeStyle;rounded=0;orthogonalLoop=1;jettySize=auto;html=1;exitX=0.25;exitY=0;exitDx=0;exitDy=0;" parent="1" source="Fp9Q9py_b1QLP6QahJXk-183" target="Fp9Q9py_b1QLP6QahJXk-189" edge="1">
          <mxGeometry relative="1" as="geometry" />
        </mxCell>
        <mxCell id="rMOd0mq3vKUzxtM7h03M-3" value="" style="group" vertex="1" connectable="0" parent="1">
          <mxGeometry x="61" y="832" width="711.5" height="179.53607406996355" as="geometry" />
        </mxCell>
        <mxCell id="Fp9Q9py_b1QLP6QahJXk-301" value="&lt;font style=&quot;font-size: 20px;&quot;&gt;&lt;span&gt;&lt;em&gt;Ï&lt;/em&gt;&lt;sub style=&quot;font-size: 12px;&quot;&gt;base&lt;/sub&gt; &lt;/span&gt;&lt;/font&gt;" style="text;whiteSpace=wrap;html=1;" parent="rMOd0mq3vKUzxtM7h03M-3" vertex="1">
          <mxGeometry y="117.46000000000004" width="37" height="38" as="geometry" />
        </mxCell>
        <mxCell id="Fp9Q9py_b1QLP6QahJXk-302" value="&lt;font style=&quot;font-size: 20px;&quot;&gt;&lt;span&gt;&lt;em&gt;Ï&lt;/em&gt;&lt;sub style=&quot;font-size: 12px;&quot;&gt;base&lt;/sub&gt; &lt;/span&gt;&lt;/font&gt;" style="text;whiteSpace=wrap;html=1;" parent="rMOd0mq3vKUzxtM7h03M-3" vertex="1">
          <mxGeometry x="2.5" y="50.460000000000036" width="37" height="38" as="geometry" />
        </mxCell>
        <mxCell id="Fp9Q9py_b1QLP6QahJXk-264" value="" style="shape=cube;whiteSpace=wrap;html=1;boundedLbl=1;backgroundOutline=1;darkOpacity=0.05;darkOpacity2=0.1;size=51;fillColor=#647687;strokeColor=#314354;fontColor=#ffffff;rotation=-20;flipV=0;flipH=0;" parent="rMOd0mq3vKUzxtM7h03M-3" vertex="1">
          <mxGeometry x="46.24959181470632" y="74.99746056406548" width="71.5" height="56" as="geometry" />
        </mxCell>
        <mxCell id="Fp9Q9py_b1QLP6QahJXk-265" value="" style="shape=cube;whiteSpace=wrap;html=1;boundedLbl=1;backgroundOutline=1;darkOpacity=0.05;darkOpacity2=0.1;size=51;fillColor=#647687;strokeColor=#314354;fontColor=#ffffff;rotation=20;flipV=0;flipH=1;" parent="rMOd0mq3vKUzxtM7h03M-3" vertex="1">
          <mxGeometry x="47.24959181470632" y="112.99746056406548" width="71.5" height="56" as="geometry" />
        </mxCell>
        <mxCell id="Fp9Q9py_b1QLP6QahJXk-266" value="" style="shape=cube;whiteSpace=wrap;html=1;boundedLbl=1;backgroundOutline=1;darkOpacity=0.05;darkOpacity2=0.1;size=51;fillColor=#647687;strokeColor=#314354;fontColor=#ffffff;rotation=20;flipV=0;flipH=1;" parent="rMOd0mq3vKUzxtM7h03M-3" vertex="1">
          <mxGeometry x="128.24959181470632" y="74.99746056406548" width="71.5" height="56" as="geometry" />
        </mxCell>
        <mxCell id="Fp9Q9py_b1QLP6QahJXk-267" value="" style="shape=cube;whiteSpace=wrap;html=1;boundedLbl=1;backgroundOutline=1;darkOpacity=0.05;darkOpacity2=0.1;size=51;fillColor=#647687;strokeColor=#314354;fontColor=#ffffff;rotation=-20;flipV=0;flipH=0;" parent="rMOd0mq3vKUzxtM7h03M-3" vertex="1">
          <mxGeometry x="131.24959181470632" y="112.99746056406548" width="71.5" height="56" as="geometry" />
        </mxCell>
        <mxCell id="Fp9Q9py_b1QLP6QahJXk-268" value="" style="shape=cylinder3;whiteSpace=wrap;html=1;boundedLbl=1;backgroundOutline=1;size=3.913043478260988;fillColor=#f5f5f5;strokeColor=#666666;gradientColor=#b3b3b3;rotation=0;" parent="rMOd0mq3vKUzxtM7h03M-3" vertex="1">
          <mxGeometry x="47.25" y="72" width="19" height="20" as="geometry" />
        </mxCell>
        <mxCell id="Fp9Q9py_b1QLP6QahJXk-269" value="" style="shape=cylinder3;whiteSpace=wrap;html=1;boundedLbl=1;backgroundOutline=1;size=3.913043478260988;fillColor=#f5f5f5;strokeColor=#666666;gradientColor=#b3b3b3;rotation=0;" parent="rMOd0mq3vKUzxtM7h03M-3" vertex="1">
          <mxGeometry x="181.25" y="72" width="19" height="20" as="geometry" />
        </mxCell>
        <mxCell id="Fp9Q9py_b1QLP6QahJXk-270" value="" style="shape=cylinder3;whiteSpace=wrap;html=1;boundedLbl=1;backgroundOutline=1;size=3.913043478260988;fillColor=#f5f5f5;strokeColor=#666666;gradientColor=#b3b3b3;rotation=0;" parent="rMOd0mq3vKUzxtM7h03M-3" vertex="1">
          <mxGeometry x="47.25" y="134" width="19" height="20" as="geometry" />
        </mxCell>
        <mxCell id="Fp9Q9py_b1QLP6QahJXk-271" value="" style="shape=cylinder3;whiteSpace=wrap;html=1;boundedLbl=1;backgroundOutline=1;size=3.913043478260988;fillColor=#f5f5f5;strokeColor=#666666;gradientColor=#b3b3b3;rotation=0;" parent="rMOd0mq3vKUzxtM7h03M-3" vertex="1">
          <mxGeometry x="180.75" y="134" width="19" height="20" as="geometry" />
        </mxCell>
        <mxCell id="Fp9Q9py_b1QLP6QahJXk-291" value="" style="group" parent="rMOd0mq3vKUzxtM7h03M-3" vertex="1" connectable="0">
          <mxGeometry x="78.5" width="197" height="154" as="geometry" />
        </mxCell>
        <mxCell id="Fp9Q9py_b1QLP6QahJXk-285" value="&lt;font style=&quot;font-size: 20px;&quot;&gt;Y&lt;/font&gt;" style="text;html=1;strokeColor=none;fillColor=none;align=center;verticalAlign=middle;whiteSpace=wrap;rounded=0;" parent="Fp9Q9py_b1QLP6QahJXk-291" vertex="1">
          <mxGeometry y="62.539999999999964" width="60" height="30" as="geometry" />
        </mxCell>
        <mxCell id="Fp9Q9py_b1QLP6QahJXk-286" value="" style="endArrow=classic;html=1;rounded=0;strokeWidth=2;" parent="Fp9Q9py_b1QLP6QahJXk-291" edge="1">
          <mxGeometry width="50" height="50" relative="1" as="geometry">
            <mxPoint x="45.75" y="122.53999999999996" as="sourcePoint" />
            <mxPoint x="45.5" y="3" as="targetPoint" />
          </mxGeometry>
        </mxCell>
        <mxCell id="Fp9Q9py_b1QLP6QahJXk-287" value="" style="endArrow=classic;html=1;rounded=0;strokeWidth=2;exitX=1;exitY=1;exitDx=0;exitDy=0;exitPerimeter=0;" parent="Fp9Q9py_b1QLP6QahJXk-291" edge="1">
          <mxGeometry width="50" height="50" relative="1" as="geometry">
            <mxPoint x="45.329016608491656" y="121.62163382217818" as="sourcePoint" />
            <mxPoint x="166" y="119" as="targetPoint" />
          </mxGeometry>
        </mxCell>
        <mxCell id="Fp9Q9py_b1QLP6QahJXk-288" value="" style="endArrow=classic;html=1;rounded=0;" parent="Fp9Q9py_b1QLP6QahJXk-291" edge="1">
          <mxGeometry width="50" height="50" relative="1" as="geometry">
            <mxPoint x="45" y="121" as="sourcePoint" />
            <mxPoint x="41" y="82" as="targetPoint" />
          </mxGeometry>
        </mxCell>
        <mxCell id="Fp9Q9py_b1QLP6QahJXk-289" value="&lt;font style=&quot;font-size: 20px;&quot;&gt;X&lt;/font&gt;" style="text;html=1;strokeColor=none;fillColor=none;align=center;verticalAlign=middle;whiteSpace=wrap;rounded=0;" parent="Fp9Q9py_b1QLP6QahJXk-291" vertex="1">
          <mxGeometry x="137" y="124" width="60" height="30" as="geometry" />
        </mxCell>
        <mxCell id="Fp9Q9py_b1QLP6QahJXk-290" value="&lt;font style=&quot;font-size: 20px;&quot;&gt;Z&lt;/font&gt;" style="text;html=1;strokeColor=none;fillColor=none;align=center;verticalAlign=middle;whiteSpace=wrap;rounded=0;" parent="Fp9Q9py_b1QLP6QahJXk-291" vertex="1">
          <mxGeometry x="33" width="60" height="30" as="geometry" />
        </mxCell>
        <mxCell id="Fp9Q9py_b1QLP6QahJXk-299" value="&lt;font style=&quot;font-size: 20px;&quot;&gt;&lt;span&gt;&lt;em&gt;Ï&lt;/em&gt;&lt;sub style=&quot;font-size: 12px;&quot;&gt;base&lt;/sub&gt; &lt;/span&gt;&lt;/font&gt;" style="text;whiteSpace=wrap;html=1;" parent="rMOd0mq3vKUzxtM7h03M-3" vertex="1">
          <mxGeometry x="199.75" y="49.460000000000036" width="37" height="38" as="geometry" />
        </mxCell>
        <mxCell id="Fp9Q9py_b1QLP6QahJXk-300" value="&lt;font style=&quot;font-size: 20px;&quot;&gt;&lt;span&gt;&lt;em&gt;Ï&lt;/em&gt;&lt;sub style=&quot;font-size: 12px;&quot;&gt;base&lt;/sub&gt; &lt;/span&gt;&lt;/font&gt;" style="text;whiteSpace=wrap;html=1;" parent="rMOd0mq3vKUzxtM7h03M-3" vertex="1">
          <mxGeometry x="202.75" y="116" width="37" height="38" as="geometry" />
        </mxCell>
        <mxCell id="Fp9Q9py_b1QLP6QahJXk-313" value="" style="group" parent="rMOd0mq3vKUzxtM7h03M-3" vertex="1" connectable="0">
          <mxGeometry x="275.5" y="58.458847058167294" width="436" height="115.07722701179637" as="geometry" />
        </mxCell>
        <mxCell id="Fp9Q9py_b1QLP6QahJXk-261" value="" style="group" parent="Fp9Q9py_b1QLP6QahJXk-313" vertex="1" connectable="0">
          <mxGeometry x="93.99999999999994" width="190.05000000000007" height="115.07722701179637" as="geometry" />
        </mxCell>
        <mxCell id="Fp9Q9py_b1QLP6QahJXk-242" value="" style="group" parent="Fp9Q9py_b1QLP6QahJXk-261" vertex="1" connectable="0">
          <mxGeometry x="7.329016608491429" width="171.3411504124299" height="115.07722701179637" as="geometry" />
        </mxCell>
        <mxCell id="Fp9Q9py_b1QLP6QahJXk-210" value="" style="shape=cube;whiteSpace=wrap;html=1;boundedLbl=1;backgroundOutline=1;darkOpacity=0.05;darkOpacity2=0.1;size=51;fillColor=#647687;strokeColor=#314354;fontColor=#ffffff;rotation=-20;flipV=0;flipH=0;" parent="Fp9Q9py_b1QLP6QahJXk-242" vertex="1">
          <mxGeometry x="7.420575206214949" y="10.538613505898184" width="71.5" height="56" as="geometry" />
        </mxCell>
        <mxCell id="Fp9Q9py_b1QLP6QahJXk-216" value="" style="shape=cube;whiteSpace=wrap;html=1;boundedLbl=1;backgroundOutline=1;darkOpacity=0.05;darkOpacity2=0.1;size=51;fillColor=#647687;strokeColor=#314354;fontColor=#ffffff;rotation=20;flipV=0;flipH=1;" parent="Fp9Q9py_b1QLP6QahJXk-242" vertex="1">
          <mxGeometry x="8.420575206214949" y="48.538613505898184" width="71.5" height="56" as="geometry" />
        </mxCell>
        <mxCell id="Fp9Q9py_b1QLP6QahJXk-214" value="" style="shape=cube;whiteSpace=wrap;html=1;boundedLbl=1;backgroundOutline=1;darkOpacity=0.05;darkOpacity2=0.1;size=51;fillColor=#647687;strokeColor=#314354;fontColor=#ffffff;rotation=20;flipV=0;flipH=1;" parent="Fp9Q9py_b1QLP6QahJXk-242" vertex="1">
          <mxGeometry x="89.42057520621495" y="10.538613505898184" width="71.5" height="56" as="geometry" />
        </mxCell>
        <mxCell id="Fp9Q9py_b1QLP6QahJXk-217" value="" style="shape=cube;whiteSpace=wrap;html=1;boundedLbl=1;backgroundOutline=1;darkOpacity=0.05;darkOpacity2=0.1;size=51;fillColor=#647687;strokeColor=#314354;fontColor=#ffffff;rotation=-20;flipV=0;flipH=0;" parent="Fp9Q9py_b1QLP6QahJXk-242" vertex="1">
          <mxGeometry x="92.42057520621495" y="48.538613505898184" width="71.5" height="56" as="geometry" />
        </mxCell>
        <mxCell id="Fp9Q9py_b1QLP6QahJXk-194" value="" style="shape=cylinder3;whiteSpace=wrap;html=1;boundedLbl=1;backgroundOutline=1;size=3.913043478260988;fillColor=#f5f5f5;strokeColor=#666666;gradientColor=#b3b3b3;rotation=0;" parent="Fp9Q9py_b1QLP6QahJXk-242" vertex="1">
          <mxGeometry x="8.420983391508628" y="7.541152941832706" width="19" height="20" as="geometry" />
        </mxCell>
        <mxCell id="Fp9Q9py_b1QLP6QahJXk-223" value="" style="shape=cylinder3;whiteSpace=wrap;html=1;boundedLbl=1;backgroundOutline=1;size=3.913043478260988;fillColor=#f5f5f5;strokeColor=#666666;gradientColor=#b3b3b3;rotation=0;" parent="Fp9Q9py_b1QLP6QahJXk-242" vertex="1">
          <mxGeometry x="142.42098339150863" y="7.541152941832706" width="19" height="20" as="geometry" />
        </mxCell>
        <mxCell id="Fp9Q9py_b1QLP6QahJXk-224" value="" style="shape=cylinder3;whiteSpace=wrap;html=1;boundedLbl=1;backgroundOutline=1;size=3.913043478260988;fillColor=#f5f5f5;strokeColor=#666666;gradientColor=#b3b3b3;rotation=0;" parent="Fp9Q9py_b1QLP6QahJXk-242" vertex="1">
          <mxGeometry x="8.420983391508628" y="69.5411529418327" width="19" height="20" as="geometry" />
        </mxCell>
        <mxCell id="Fp9Q9py_b1QLP6QahJXk-225" value="" style="shape=cylinder3;whiteSpace=wrap;html=1;boundedLbl=1;backgroundOutline=1;size=3.913043478260988;fillColor=#f5f5f5;strokeColor=#666666;gradientColor=#b3b3b3;rotation=0;" parent="Fp9Q9py_b1QLP6QahJXk-242" vertex="1">
          <mxGeometry x="141.92098339150863" y="69.5411529418327" width="19" height="20" as="geometry" />
        </mxCell>
        <mxCell id="Fp9Q9py_b1QLP6QahJXk-255" value="" style="shape=flexArrow;endArrow=classic;html=1;rounded=0;fillColor=#d5e8d4;strokeColor=#82b366;gradientColor=#97d077;endWidth=9.696969696969697;endSize=3.6484848484848484;width=3.0303030303030303;" parent="Fp9Q9py_b1QLP6QahJXk-261" edge="1">
          <mxGeometry width="50" height="50" relative="1" as="geometry">
            <mxPoint x="190.00000000000006" y="38.541152941832706" as="sourcePoint" />
            <mxPoint x="190.05000000000007" y="5.001152941832743" as="targetPoint" />
          </mxGeometry>
        </mxCell>
        <mxCell id="Fp9Q9py_b1QLP6QahJXk-226" value="" style="shape=flexArrow;endArrow=classic;html=1;rounded=0;fillColor=#d5e8d4;strokeColor=#82b366;gradientColor=#97d077;endWidth=9.696969696969697;endSize=3.6484848484848484;width=3.0303030303030303;" parent="Fp9Q9py_b1QLP6QahJXk-261" edge="1">
          <mxGeometry width="50" height="50" relative="1" as="geometry">
            <mxPoint x="190" y="98.31115294183269" as="sourcePoint" />
            <mxPoint x="190.05000000000007" y="64.77115294183272" as="targetPoint" />
          </mxGeometry>
        </mxCell>
        <mxCell id="Fp9Q9py_b1QLP6QahJXk-257" value="" style="shape=flexArrow;endArrow=classic;html=1;rounded=0;fillColor=#f8cecc;strokeColor=#b85450;gradientColor=#ea6b66;endWidth=9.696969696969697;endSize=3.6484848484848484;width=3.0303030303030303;" parent="Fp9Q9py_b1QLP6QahJXk-261" edge="1">
          <mxGeometry width="50" height="50" relative="1" as="geometry">
            <mxPoint x="0.05000000000006821" y="10.541152941832706" as="sourcePoint" />
            <mxPoint y="44.08115294183267" as="targetPoint" />
          </mxGeometry>
        </mxCell>
        <mxCell id="Fp9Q9py_b1QLP6QahJXk-256" value="" style="shape=flexArrow;endArrow=classic;html=1;rounded=0;fillColor=#f8cecc;strokeColor=#b85450;gradientColor=#ea6b66;endWidth=9.696969696969697;endSize=3.6484848484848484;width=3.0303030303030303;" parent="Fp9Q9py_b1QLP6QahJXk-261" edge="1">
          <mxGeometry width="50" height="50" relative="1" as="geometry">
            <mxPoint x="0.05000000000006821" y="71.00115294183274" as="sourcePoint" />
            <mxPoint y="104.5411529418327" as="targetPoint" />
          </mxGeometry>
        </mxCell>
        <mxCell id="Fp9Q9py_b1QLP6QahJXk-303" value="&lt;font style=&quot;font-size: 20px;&quot;&gt;&lt;span&gt;&lt;em&gt;Ï&lt;/em&gt;&lt;sub style=&quot;font-size: 12px;&quot;&gt;base&lt;/sub&gt;&lt;/span&gt;&lt;/font&gt;&lt;font style=&quot;font-size: 20px;&quot;&gt; + &lt;/font&gt;&lt;font style=&quot;font-size: 20px;&quot;&gt;u&lt;/font&gt;&lt;sub&gt;Ï&lt;/sub&gt;&lt;style type=&quot;text/css&quot;&gt;p, li { white-space: pre-wrap; }&lt;/style&gt;&lt;br&gt;&lt;style type=&quot;text/css&quot;&gt;p, li { white-space: pre-wrap; }&lt;/style&gt;&lt;style type=&quot;text/css&quot;&gt;p, li { white-space: pre-wrap; }&lt;/style&gt;&lt;br&gt;&lt;style type=&quot;text/css&quot;&gt;p, li { white-space: pre-wrap; }&lt;/style&gt;" style="text;whiteSpace=wrap;html=1;" parent="Fp9Q9py_b1QLP6QahJXk-313" vertex="1">
          <mxGeometry x="293" y="0.0011529418327427265" width="143" height="53" as="geometry" />
        </mxCell>
        <mxCell id="Fp9Q9py_b1QLP6QahJXk-306" value="&lt;font style=&quot;font-size: 20px;&quot;&gt;&lt;span&gt;&lt;em&gt;Ï&lt;/em&gt;&lt;sub style=&quot;font-size: 12px;&quot;&gt;base&lt;/sub&gt;&lt;/span&gt;&lt;/font&gt;&lt;font style=&quot;font-size: 20px;&quot;&gt; + &lt;/font&gt;&lt;font style=&quot;font-size: 20px;&quot;&gt;u&lt;/font&gt;&lt;sub&gt;Ï&lt;/sub&gt;&lt;style type=&quot;text/css&quot;&gt;p, li { white-space: pre-wrap; }&lt;/style&gt;&lt;br&gt;&lt;style type=&quot;text/css&quot;&gt;p, li { white-space: pre-wrap; }&lt;/style&gt;&lt;style type=&quot;text/css&quot;&gt;p, li { white-space: pre-wrap; }&lt;/style&gt;&lt;br&gt;&lt;style type=&quot;text/css&quot;&gt;p, li { white-space: pre-wrap; }&lt;/style&gt;" style="text;whiteSpace=wrap;html=1;" parent="Fp9Q9py_b1QLP6QahJXk-313" vertex="1">
          <mxGeometry x="293" y="60.00115294183274" width="143" height="53" as="geometry" />
        </mxCell>
        <mxCell id="Fp9Q9py_b1QLP6QahJXk-307" value="&lt;font style=&quot;font-size: 20px;&quot;&gt;&lt;span&gt;&lt;em&gt;Ï&lt;/em&gt;&lt;sub style=&quot;font-size: 12px;&quot;&gt;base&lt;/sub&gt;&lt;/span&gt;&lt;/font&gt;&lt;font style=&quot;font-size: 20px;&quot;&gt; - &lt;/font&gt;&lt;font style=&quot;font-size: 20px;&quot;&gt;u&lt;/font&gt;&lt;sub&gt;Ï&lt;/sub&gt;&lt;style type=&quot;text/css&quot;&gt;p, li { white-space: pre-wrap; }&lt;/style&gt;&lt;br&gt;&lt;style type=&quot;text/css&quot;&gt;p, li { white-space: pre-wrap; }&lt;/style&gt;&lt;style type=&quot;text/css&quot;&gt;p, li { white-space: pre-wrap; }&lt;/style&gt;&lt;br&gt;&lt;style type=&quot;text/css&quot;&gt;p, li { white-space: pre-wrap; }&lt;/style&gt;" style="text;whiteSpace=wrap;html=1;" parent="Fp9Q9py_b1QLP6QahJXk-313" vertex="1">
          <mxGeometry x="2.5" y="60.00115294183274" width="143" height="53" as="geometry" />
        </mxCell>
        <mxCell id="Fp9Q9py_b1QLP6QahJXk-308" value="&lt;font style=&quot;font-size: 20px;&quot;&gt;&lt;span&gt;&lt;em&gt;Ï&lt;/em&gt;&lt;sub style=&quot;font-size: 12px;&quot;&gt;base&lt;/sub&gt;&lt;/span&gt;&lt;/font&gt;&lt;font style=&quot;font-size: 20px;&quot;&gt; - u&lt;/font&gt;&lt;span style=&quot;white-space: pre-wrap&quot;&gt;&lt;sub&gt;Ï&lt;/sub&gt;&lt;/span&gt;&lt;style type=&quot;text/css&quot;&gt;p, li { white-space: pre-wrap; }&lt;/style&gt;&lt;style type=&quot;text/css&quot;&gt;p, li { white-space: pre-wrap; }&lt;/style&gt;&lt;br&gt;&lt;style type=&quot;text/css&quot;&gt;p, li { white-space: pre-wrap; }&lt;/style&gt;&lt;style type=&quot;text/css&quot;&gt;p, li { white-space: pre-wrap; }&lt;/style&gt;&lt;br&gt;&lt;style type=&quot;text/css&quot;&gt;p, li { white-space: pre-wrap; }&lt;/style&gt;" style="text;whiteSpace=wrap;html=1;" parent="Fp9Q9py_b1QLP6QahJXk-313" vertex="1">
          <mxGeometry y="0.0011529418327427265" width="143" height="53" as="geometry" />
        </mxCell>
        <mxCell id="rMOd0mq3vKUzxtM7h03M-5" value="&lt;font style=&quot;font-size: 20px;&quot;&gt;&lt;font face=&quot;Arial&quot;&gt;PodrzÄdny system sterowania&lt;/font&gt;&lt;br&gt;&lt;/font&gt;" style="shape=cube;whiteSpace=wrap;html=1;boundedLbl=1;backgroundOutline=1;darkOpacity=0.05;darkOpacity2=0.1;" vertex="1" parent="1">
          <mxGeometry x="488" y="1160" width="242" height="120" as="geometry" />
        </mxCell>
        <mxCell id="rMOd0mq3vKUzxtM7h03M-7" value="&lt;div style=&quot;font-size: 20px;&quot;&gt;&lt;font style=&quot;font-size: 20px;&quot; face=&quot;Arial&quot;&gt;Obiekt sterowania&lt;/font&gt;&lt;/div&gt;&lt;div style=&quot;font-size: 20px;&quot;&gt;&lt;font style=&quot;font-size: 20px;&quot; face=&quot;Arial&quot;&gt;Dron&lt;br&gt;&lt;/font&gt;&lt;/div&gt;" style="shape=cube;whiteSpace=wrap;html=1;boundedLbl=1;backgroundOutline=1;darkOpacity=0.05;darkOpacity2=0.1;" vertex="1" parent="1">
          <mxGeometry x="798" y="1160" width="242" height="120" as="geometry" />
        </mxCell>
        <mxCell id="rMOd0mq3vKUzxtM7h03M-8" value="" style="shape=flexArrow;endArrow=classic;html=1;rounded=0;exitX=0;exitY=0;exitDx=241.99999999999997;exitDy=70;exitPerimeter=0;fillColor=default;" edge="1" parent="1" source="rMOd0mq3vKUzxtM7h03M-7">
          <mxGeometry width="50" height="50" relative="1" as="geometry">
            <mxPoint x="1130" y="1220" as="sourcePoint" />
            <mxPoint x="705" y="1440" as="targetPoint" />
            <Array as="points">
              <mxPoint x="1120" y="1230" />
              <mxPoint x="1120" y="1440" />
            </Array>
          </mxGeometry>
        </mxCell>
        <mxCell id="rMOd0mq3vKUzxtM7h03M-9" value="" style="shape=cube;whiteSpace=wrap;html=1;boundedLbl=1;backgroundOutline=1;darkOpacity=0.05;darkOpacity2=0.1;size=30;" vertex="1" parent="1">
          <mxGeometry x="673" y="1390" width="40" height="100" as="geometry" />
        </mxCell>
        <mxCell id="rMOd0mq3vKUzxtM7h03M-10" value="" style="shape=flexArrow;endArrow=classic;html=1;rounded=0;fillColor=default;" edge="1" parent="1">
          <mxGeometry width="50" height="50" relative="1" as="geometry">
            <mxPoint x="689" y="1420" as="sourcePoint" />
            <mxPoint x="500" y="1250" as="targetPoint" />
            <Array as="points">
              <mxPoint x="440" y="1420" />
              <mxPoint x="440" y="1250" />
            </Array>
          </mxGeometry>
        </mxCell>
        <mxCell id="rMOd0mq3vKUzxtM7h03M-12" value="&lt;font style=&quot;font-size: 20px;&quot; face=&quot;Arial&quot;&gt;Sterownik predykcyjny MPC&lt;br&gt;&lt;/font&gt;" style="shape=cube;whiteSpace=wrap;html=1;boundedLbl=1;backgroundOutline=1;darkOpacity=0.05;darkOpacity2=0.1;" vertex="1" parent="1">
          <mxGeometry x="160" y="1160" width="242" height="120" as="geometry" />
        </mxCell>
        <mxCell id="rMOd0mq3vKUzxtM7h03M-11" value="" style="shape=flexArrow;endArrow=classic;html=1;rounded=0;fillColor=default;" edge="1" parent="1">
          <mxGeometry width="50" height="50" relative="1" as="geometry">
            <mxPoint x="689" y="1456" as="sourcePoint" />
            <mxPoint x="171" y="1240" as="targetPoint" />
            <Array as="points">
              <mxPoint x="80" y="1456" />
              <mxPoint x="80" y="1240" />
            </Array>
          </mxGeometry>
        </mxCell>
        <mxCell id="rMOd0mq3vKUzxtM7h03M-13" value="&lt;font style=&quot;font-size: 20px;&quot; face=&quot;Arial&quot;&gt;x, y, z, V&lt;sub&gt;x&lt;/sub&gt;,V&lt;sub&gt;y&lt;/sub&gt;,V&lt;sub&gt;z&lt;/sub&gt;&lt;sub&gt; &lt;/sub&gt;&lt;/font&gt;" style="text;html=1;strokeColor=none;fillColor=none;align=center;verticalAlign=middle;whiteSpace=wrap;rounded=0;" vertex="1" parent="1">
          <mxGeometry x="115.5" y="1370" width="160" height="30" as="geometry" />
        </mxCell>
        <mxCell id="rMOd0mq3vKUzxtM7h03M-14" value="&lt;div align=&quot;justify&quot;&gt;&lt;font style=&quot;font-size: 20px;&quot; face=&quot;Arial&quot;&gt;Zmienne opisujÄce ruch postÄpowy&lt;/font&gt;&lt;/div&gt;" style="text;html=1;strokeColor=none;fillColor=none;align=left;verticalAlign=middle;whiteSpace=wrap;rounded=0;" vertex="1" parent="1">
          <mxGeometry x="115.5" y="1330" width="170" height="20" as="geometry" />
        </mxCell>
        <mxCell id="rMOd0mq3vKUzxtM7h03M-19" value="" style="rounded=1;whiteSpace=wrap;html=1;" vertex="1" parent="1">
          <mxGeometry x="470" y="1310" width="181" height="90" as="geometry" />
        </mxCell>
        <mxCell id="rMOd0mq3vKUzxtM7h03M-20" value="Ï&lt;font style=&quot;font-size: 20px;&quot; face=&quot;Arial&quot;&gt;, , &lt;/font&gt;&lt;span style=&quot;white-space: pre-wrap&quot;&gt;Ï&lt;/span&gt;&lt;style type=&quot;text/css&quot;&gt;p, li { white-space: pre-wrap;Â &lt;/style&gt;" style="text;html=1;strokeColor=none;fillColor=none;align=center;verticalAlign=middle;whiteSpace=wrap;rounded=0;" vertex="1" parent="1">
          <mxGeometry x="475.5" y="1370" width="160" height="30" as="geometry" />
        </mxCell>
        <mxCell id="rMOd0mq3vKUzxtM7h03M-21" value="&lt;div align=&quot;justify&quot;&gt;&lt;font style=&quot;font-size: 20px;&quot; face=&quot;Arial&quot;&gt;Zmienne opisujÄce ruch obrotowy&lt;br&gt;&lt;/font&gt;&lt;/div&gt;" style="text;html=1;strokeColor=none;fillColor=none;align=left;verticalAlign=middle;whiteSpace=wrap;rounded=0;" vertex="1" parent="1">
          <mxGeometry x="475.5" y="1330" width="170" height="20" as="geometry" />
        </mxCell>
      </root>
    </mxGraphModel>
  </diagram>
</mxfile>
